<svg width="23" height="20" viewBox="0 0 23 20" fill="none" xmlns="http://www.w3.org/2000/svg">
<path d="M13.6905 5.55556H12.0476V11.1111L16.7352 13.9333L17.5238 12.5889L13.6905 10.2778V5.55556ZM13.1429 0C10.5286 0 8.02138 1.05357 6.1728 2.92893C4.32423 4.8043 3.28571 7.34784 3.28571 10H0L4.33714 14.4778L8.7619 10H5.47619C5.47619 7.93721 6.28393 5.9589 7.72171 4.50028C9.15948 3.04166 11.1095 2.22222 13.1429 2.22222C15.1762 2.22222 17.1262 3.04166 18.564 4.50028C20.0018 5.9589 20.8095 7.93721 20.8095 10C20.8095 12.0628 20.0018 14.0411 18.564 15.4997C17.1262 16.9583 15.1762 17.7778 13.1429 17.7778C11.029 17.7778 9.11238 16.9 7.73238 15.4889L6.17714 17.0667C7.96238 18.8889 10.4048 20 13.1429 20C15.7571 20 18.2643 18.9464 20.1129 17.0711C21.9615 15.1957 23 12.6522 23 10C23 7.34784 21.9615 4.8043 20.1129 2.92893C18.2643 1.05357 15.7571 0 13.1429 0Z" fill="white"/>
</svg>
