<svg width="17" height="19" viewBox="0 0 17 19" fill="none" xmlns="http://www.w3.org/2000/svg">
<path d="M14.6818 17.2727H5.18182V5.18182H14.6818M14.6818 3.45455H5.18182C4.72372 3.45455 4.28438 3.63653 3.96045 3.96045C3.63653 4.28438 3.45455 4.72372 3.45455 5.18182V17.2727C3.45455 17.7308 3.63653 18.1702 3.96045 18.4941C4.28438 18.818 4.72372 19 5.18182 19H14.6818C15.1399 19 15.5793 18.818 15.9032 18.4941C16.2271 18.1702 16.4091 17.7308 16.4091 17.2727V5.18182C16.4091 4.72372 16.2271 4.28438 15.9032 3.96045C15.5793 3.63653 15.1399 3.45455 14.6818 3.45455ZM12.0909 0H1.72727C1.26917 0 0.829833 0.18198 0.505906 0.505907C0.18198 0.829833 0 1.26917 0 1.72727V13.8182H1.72727V1.72727H12.0909V0Z" fill="#F6A792"/>
</svg>
