<svg width="12" height="15" viewBox="0 0 12 15" fill="none" xmlns="http://www.w3.org/2000/svg">
<path d="M10.4904 13.0865H3.70249V4.38191H10.4904M10.4904 3.13839H3.70249C3.37517 3.13839 3.06125 3.2694 2.8298 3.50261C2.59835 3.73581 2.46833 4.0521 2.46833 4.38191V13.0865C2.46833 13.4163 2.59835 13.7326 2.8298 13.9658C3.06125 14.199 3.37517 14.33 3.70249 14.33H10.4904C10.8177 14.33 11.1316 14.199 11.3631 13.9658C11.5945 13.7326 11.7245 13.4163 11.7245 13.0865V4.38191C11.7245 4.0521 11.5945 3.73581 11.3631 3.50261C11.1316 3.2694 10.8177 3.13839 10.4904 3.13839ZM8.63914 0.651367H1.23416C0.906843 0.651367 0.592928 0.78238 0.361478 1.01558C0.130027 1.24879 0 1.56508 0 1.89488V10.5995H1.23416V1.89488H8.63914V0.651367Z" fill="white"/>
</svg>
