<svg width="16" height="16" viewBox="0 0 16 16" fill="none" xmlns="http://www.w3.org/2000/svg">
<path d="M8.14211 0.959229C4.10034 0.959229 0.816406 4.24317 0.816406 8.28493C0.816406 12.3267 4.10034 15.6106 8.14211 15.6106C12.1839 15.6106 15.4678 12.3267 15.4678 8.28493C15.4678 4.24317 12.1334 0.959229 8.14211 0.959229ZM8.14211 2.12124C10.163 2.12124 11.9313 3.08116 13.0428 4.59682H11.8807C11.7292 4.59682 11.6281 4.5463 11.5271 4.44525L11.0724 3.94003C11.0219 3.88951 10.9208 3.83899 10.8198 3.83899C10.7187 3.83899 10.6177 3.88951 10.5672 3.94003L10.062 4.49578C10.0114 4.5463 9.91039 4.59682 9.80934 4.59682H9.40516H3.24147C4.35295 3.08116 6.12123 2.12124 8.14211 2.12124ZM2.33207 6.26405H8.24315C8.44524 6.26405 8.59681 6.163 8.74837 6.06196L9.15255 5.65778C9.20307 5.60726 9.30412 5.55674 9.40516 5.55674C9.50621 5.55674 9.60725 5.60726 9.65777 5.65778L10.1125 6.163C10.2135 6.26405 10.3146 6.31457 10.4661 6.31457H11.5271H13.9522C14.1037 6.81979 14.2553 7.32501 14.2553 7.83023H9.7083C9.55673 7.83023 9.45568 7.77971 9.35464 7.67867L8.89994 7.17345C8.84942 7.12292 8.74837 7.0724 8.64733 7.0724C8.54629 7.0724 8.44524 7.12292 8.39472 7.17345L7.8895 7.72919C7.83898 7.77971 7.73793 7.83023 7.63689 7.83023H2.02893C2.02893 7.22397 2.12998 6.71875 2.33207 6.26405ZM8.14211 14.4486C6.37384 14.4486 4.75713 13.6908 3.64565 12.4783C3.84773 12.4783 3.9993 12.3772 4.15087 12.2762L4.55504 11.872C4.60556 11.8215 4.7066 11.771 4.80765 11.771C4.90869 11.771 5.00974 11.8215 5.06026 11.872L5.51496 12.3772C5.61601 12.4783 5.71705 12.5288 5.86862 12.5288H7.48532H12.6891C11.4766 13.6908 9.91038 14.4486 8.14211 14.4486ZM13.649 10.9626H7.4348C7.28324 10.9626 7.18219 10.9121 7.08114 10.811L6.62645 10.3058C6.57592 10.2553 6.47488 10.2048 6.37384 10.2048C6.27279 10.2048 6.17175 10.2553 6.12123 10.3058L5.61601 10.8616C5.56548 10.9121 5.46444 10.9626 5.36339 10.9626H2.58468C2.33207 10.5079 2.1805 9.95216 2.07946 9.44694H6.0707C6.27279 9.44694 6.42436 9.3459 6.57592 9.24485L6.92958 8.84068C6.9801 8.79015 7.08115 8.73963 7.18219 8.73963C7.28324 8.73963 7.38428 8.79015 7.4348 8.84068L7.8895 9.3459C7.99054 9.44694 8.09159 9.49746 8.24315 9.49746H14.2048C14.0532 9.95216 13.9016 10.4574 13.649 10.9626Z" fill="#F8F1DB"/>
</svg>
