<svg width="17" height="17" viewBox="0 0 17 17" fill="none" xmlns="http://www.w3.org/2000/svg">
<path d="M13.8801 7.34827H10.6142V10.6142H8.98121V7.34827H5.71532V5.71532H8.98121V2.44942H10.6142V5.71532H13.8801M14.6965 0H4.89884C4.46576 0 4.05041 0.172042 3.74418 0.478279C3.43794 0.784516 3.2659 1.19986 3.2659 1.63295V11.4306C3.2659 11.8637 3.43794 12.2791 3.74418 12.5853C4.05041 12.8915 4.46576 13.0636 4.89884 13.0636H14.6965C15.1296 13.0636 15.545 12.8915 15.8512 12.5853C16.1574 12.2791 16.3295 11.8637 16.3295 11.4306V1.63295C16.3295 1.19986 16.1574 0.784516 15.8512 0.478279C15.545 0.172042 15.1296 0 14.6965 0ZM1.63295 3.2659H0V14.6965C0 15.1296 0.172042 15.545 0.478279 15.8512C0.784516 16.1574 1.19986 16.3295 1.63295 16.3295H13.0636V14.6965H1.63295V3.2659Z" fill="#F8F1DB"/>
</svg>
