<svg width="23" height="23" viewBox="0 0 23 23" fill="none" xmlns="http://www.w3.org/2000/svg">
<path d="M20.4444 0H16.9944H6.00556H2.55556C1.87778 0 1.22776 0.269245 0.748505 0.748505C0.269245 1.22776 0 1.87778 0 2.55556V6.00556V17.1222V20.4444C0 21.1222 0.269245 21.7722 0.748505 22.2515C1.22776 22.7308 1.87778 23 2.55556 23H6.00556H17.1222H20.4444C21.1222 23 21.7722 22.7308 22.2515 22.2515C22.7308 21.7722 23 21.1222 23 20.4444V16.9944V6.00556V2.55556C23 1.87778 22.7308 1.22776 22.2515 0.748505C21.7722 0.269245 21.1222 0 20.4444 0ZM16.1 17.8889L11.5 13.2889L6.9 17.8889L5.11111 16.1L9.71111 11.5L5.11111 6.9L6.9 5.11111L11.5 9.71111L16.1 5.11111L17.8889 6.9L13.2889 11.5L17.8889 16.1L16.1 17.8889Z" fill="white"/>
</svg>
