<svg width="129" height="43" viewBox="0 0 129 43" fill="none" xmlns="http://www.w3.org/2000/svg">
<path d="M24.0123 4.78161V8.74226H30.3996V12.424H24.0123V16.7193H31.2363V20.5405H19.2428V0.960419H31.2363V4.78161H24.0123ZM56.5068 0.960419V20.5405H51.7373V8.79804L47.3583 20.5405H43.5092L39.1023 8.77015V20.5405H34.3328V0.960419H39.9669L45.4616 14.5159L50.9005 0.960419H56.5068ZM71.7907 10.4994C72.925 10.7412 73.8361 11.3083 74.5241 12.2009C75.2121 13.0748 75.5561 14.0789 75.5561 15.2132C75.5561 16.8495 74.9797 18.1511 73.8268 19.118C72.6925 20.0664 71.1027 20.5405 69.0573 20.5405H59.9366V0.960419H68.7505C70.7401 0.960419 72.2928 1.41599 73.4084 2.32712C74.5427 3.23826 75.1098 4.4748 75.1098 6.03674C75.1098 7.18961 74.803 8.14723 74.1894 8.90961C73.5944 9.67199 72.7948 10.2019 71.7907 10.4994ZM64.7062 8.88172H67.8301C68.611 8.88172 69.2061 8.71436 69.6151 8.37966C70.0428 8.02636 70.2566 7.51501 70.2566 6.84561C70.2566 6.1762 70.0428 5.66485 69.6151 5.31155C69.2061 4.95826 68.611 4.78161 67.8301 4.78161H64.7062V8.88172ZM68.2205 16.6914C69.0201 16.6914 69.6337 16.5148 70.0614 16.1615C70.5077 15.7896 70.7308 15.2597 70.7308 14.5717C70.7308 13.8837 70.4984 13.3444 70.0335 12.9539C69.5872 12.5634 68.9643 12.3682 68.1648 12.3682H64.7062V16.6914H68.2205ZM83.0919 4.78161V8.74226H89.4792V12.424H83.0919V16.7193H90.3159V20.5405H78.3224V0.960419H90.3159V4.78161H83.0919ZM103.398 20.5405L99.3255 13.1492H98.1819V20.5405H93.4124V0.960419H101.417C102.961 0.960419 104.272 1.23004 105.35 1.76928C106.447 2.30853 107.265 3.05231 107.805 4.00063C108.344 4.93036 108.613 5.97166 108.613 7.12453C108.613 8.42615 108.242 9.58831 107.498 10.611C106.773 11.6337 105.694 12.3589 104.262 12.7866L108.781 20.5405H103.398ZM98.1819 9.77426H101.138C102.012 9.77426 102.663 9.56042 103.091 9.13274C103.537 8.70507 103.76 8.10074 103.76 7.31977C103.76 6.57599 103.537 5.99026 103.091 5.56258C102.663 5.13491 102.012 4.92107 101.138 4.92107H98.1819V9.77426ZM118.692 20.7358C117.26 20.7358 115.977 20.5033 114.843 20.0385C113.709 19.5736 112.798 18.8856 112.11 17.9745C111.44 17.0633 111.087 15.9663 111.05 14.6832H116.126C116.2 15.4084 116.451 15.9663 116.879 16.3567C117.307 16.7286 117.865 16.9146 118.553 16.9146C119.259 16.9146 119.817 16.7565 120.226 16.4404C120.635 16.1057 120.84 15.6501 120.84 15.0737C120.84 14.5903 120.672 14.1905 120.338 13.8744C120.022 13.5583 119.622 13.2979 119.138 13.0934C118.673 12.8889 118.004 12.6564 117.13 12.3961C115.866 12.0056 114.834 11.6151 114.034 11.2246C113.234 10.8341 112.546 10.2577 111.97 9.49534C111.394 8.73296 111.105 7.73815 111.105 6.51091C111.105 4.68864 111.766 3.26615 113.086 2.24345C114.406 1.20215 116.126 0.6815 118.246 0.6815C120.403 0.6815 122.141 1.20215 123.462 2.24345C124.782 3.26615 125.488 4.69793 125.581 6.5388H120.421C120.384 5.90658 120.152 5.41382 119.724 5.06053C119.296 4.68863 118.748 4.50269 118.078 4.50269C117.502 4.50269 117.037 4.66074 116.684 4.97685C116.33 5.27436 116.154 5.71134 116.154 6.28777C116.154 6.91999 116.451 7.41274 117.046 7.76604C117.641 8.11934 118.571 8.50053 119.836 8.90961C121.1 9.33728 122.123 9.74636 122.904 10.1369C123.703 10.5273 124.391 11.0945 124.968 11.8383C125.544 12.582 125.832 13.5397 125.832 14.7111C125.832 15.8268 125.544 16.8402 124.968 17.7513C124.41 18.6625 123.592 19.3877 122.513 19.9269C121.435 20.4661 120.161 20.7358 118.692 20.7358Z" fill="#F8F1DB"/>
<path d="M35.9762 22.0811V24.1416C36.1635 23.9542 36.4445 23.7669 36.8191 23.7669C37.1938 23.7669 37.5684 23.8606 37.8494 24.1416C38.1304 24.4225 38.3177 24.7972 38.3177 25.2655C38.3177 25.7338 38.1304 26.1084 37.8494 26.3894C37.5684 26.6704 37.2874 26.764 36.8191 26.764C36.6318 26.764 36.2572 26.764 35.9762 26.3894V26.6704H34.946V22.0811H35.9762ZM37.0065 25.6401C37.1001 25.5465 37.1938 25.3591 37.1938 25.1718C37.1938 24.9845 37.1001 24.7972 37.0065 24.7035C36.9128 24.6099 36.8192 24.5162 36.5382 24.5162C36.3509 24.5162 36.1635 24.6099 36.0699 24.7035C35.9762 24.7972 35.8825 24.9845 35.8825 25.1718C35.8825 25.3591 35.9762 25.5465 36.0699 25.6401C36.1635 25.7338 36.3509 25.8274 36.5382 25.8274C36.7255 25.8274 36.9128 25.8274 37.0065 25.6401Z" fill="#16181D"/>
<path d="M39.7225 26.202L38.4113 23.7668H39.5352L40.2845 25.1717L41.0338 23.7668H42.1577L39.9099 27.9815H38.7859L39.7225 26.202Z" fill="#16181D"/>
<path d="M52.7414 23.2354L51.1492 28.9486C50.9619 29.5105 50.8682 29.9788 50.8682 30.5408H50.7745C50.7745 30.3535 50.6809 29.6979 50.4935 28.9486L48.9013 23.2354H43.75L41.5022 37.0969H46.3725L47.0281 30.6345C47.0281 30.3535 47.0281 29.7915 47.0281 29.5105H47.2155C47.2155 30.0725 47.3091 30.5408 47.4964 31.0091L49.3696 37.0969H52.2731L54.3336 30.6345C54.4272 30.3535 54.5209 29.7915 54.6146 29.5105H54.7082C54.7082 30.0725 54.7082 30.4471 54.8019 30.9154L55.4575 37.0969H60.3278L58.08 23.2354H52.7414Z" fill="#F8F1DB"/>
<path d="M65.7599 23.2354L60.9833 37.0969H66.3218L66.6965 35.4111H70.5365L71.0048 37.0969H76.3434L71.3795 23.2354H65.7599ZM67.6331 32.0393L68.2887 29.4169C68.3824 28.9486 68.476 28.4803 68.476 27.8247H68.6633C68.757 28.293 68.8507 28.8549 68.9443 29.4169L69.5999 32.0393H67.6331Z" fill="#F8F1DB"/>
<path d="M83.1805 29.6979L82.8059 31.0091L82.5249 30.1662C82.5249 29.9788 82.4312 29.8852 82.4312 29.7915L80.4644 23.2354H75.2195L82.8059 42.6229L90.2986 23.2354H85.0537L83.1805 29.6979Z" fill="#F8F1DB"/>
<path d="M100.789 31.7585V31.6648C101.632 31.4775 102.287 31.1028 102.662 30.5409C103.036 30.0726 103.411 29.3233 103.411 28.1057C103.411 26.4199 102.849 25.3896 102.1 24.734C100.789 23.4228 99.2901 23.3291 97.8852 23.3291H91.7037V37.1907H96.574V32.7887H96.6676C96.7613 32.976 96.7613 33.0697 96.8549 33.257L98.8218 37.2844H104.629L101.538 32.6014C101.351 32.1331 101.07 31.8521 100.789 31.7585ZM98.2598 29.0423C97.9789 29.3233 97.5106 29.3233 97.2296 29.3233H96.6676V26.9818H97.5106C97.8852 26.9818 98.1662 27.1691 98.3535 27.3565C98.5408 27.5438 98.6345 27.9184 98.6345 28.1994C98.6345 28.6677 98.4472 28.9487 98.2598 29.0423Z" fill="#F8F1DB"/>
<path d="M111.559 23.2354H106.502V37.0969H111.559V23.2354Z" fill="#F8F1DB"/>
<path d="M127.669 23.2354H123.829C123.829 23.2354 123.829 23.2354 123.735 23.2354H122.143L119.802 27.731C119.521 28.1993 119.333 28.4803 119.052 29.3232H118.959C119.052 28.6676 119.052 28.1993 119.052 27.5437V23.2354H114.276V37.0969H119.052V32.6013C119.052 32.133 119.052 31.7584 118.959 31.2901H119.052C119.24 31.6647 119.427 32.2267 119.708 32.6013L122.237 37.0033H128.044L123.267 29.9788L127.669 23.2354Z" fill="#F8F1DB"/>
<path d="M13.7538 9.00056C13.5057 8.67127 13.2036 8.38588 12.923 8.1005C12.2001 7.44192 11.3801 6.96994 10.6896 6.27844C9.08196 4.6759 8.7259 2.03061 9.75091 0C8.7259 0.252455 7.83037 0.823222 7.06432 1.44887C4.26983 3.73194 3.16929 7.76024 4.48562 11.2178C4.52878 11.3275 4.57193 11.4373 4.57193 11.58C4.57193 11.8215 4.41009 12.041 4.1943 12.1288C3.94614 12.2386 3.68719 12.1727 3.48219 11.9971C3.41745 11.9422 3.3743 11.8873 3.33114 11.8105C2.11192 10.2409 1.91771 7.99074 2.73771 6.19063C0.935862 7.6834 -0.0459848 10.2079 0.0942791 12.5898C0.159016 13.1386 0.223753 13.6874 0.407175 14.2362C0.558229 14.8948 0.849546 15.5534 1.17323 16.1351C2.3385 18.034 4.35614 19.3951 6.52484 19.6695C8.8338 19.9659 11.3046 19.5378 13.0741 17.9133C15.0486 16.0912 15.7391 13.1715 14.7249 10.669L14.5846 10.3836C14.358 9.87866 13.7538 9.00056 13.7538 9.00056ZM10.3443 15.9156C10.0422 16.179 9.54591 16.4644 9.15748 16.5742C7.94906 17.0132 6.74063 16.3986 6.02852 15.6741C7.31247 15.3668 8.07853 14.4009 8.30511 13.424C8.48853 12.5459 8.14327 11.8215 8.003 10.9763C7.87353 10.164 7.89511 9.47254 8.18643 8.71517C8.39143 9.13227 8.60722 9.54937 8.86617 9.87866C9.69696 10.9763 11.0025 11.4592 11.283 12.952C11.3262 13.1057 11.3478 13.2594 11.3478 13.424C11.3801 14.3241 10.9917 15.3119 10.3443 15.9156Z" fill="#F8F1DB"/>
</svg>
