<svg width="8" height="14" viewBox="0 0 8 14" fill="none" xmlns="http://www.w3.org/2000/svg">
<path d="M0 9.33333H1.6C1.6 10.1733 2.696 10.8889 4 10.8889C5.304 10.8889 6.4 10.1733 6.4 9.33333C6.4 8.47778 5.568 8.16667 3.808 7.75444C2.112 7.34222 0 6.82889 0 4.66667C0 3.27444 1.176 2.09222 2.8 1.69556V0H5.2V1.69556C6.824 2.09222 8 3.27444 8 4.66667H6.4C6.4 3.82667 5.304 3.11111 4 3.11111C2.696 3.11111 1.6 3.82667 1.6 4.66667C1.6 5.52222 2.432 5.83333 4.192 6.24556C5.888 6.65778 8 7.17111 8 9.33333C8 10.7256 6.824 11.9078 5.2 12.3044V14H2.8V12.3044C1.176 11.9078 0 10.7256 0 9.33333Z" fill="#F8F1DB"/>
</svg>
