<svg width="16" height="16" viewBox="0 0 16 16" fill="none" xmlns="http://www.w3.org/2000/svg">
<path d="M8 0C3.58621 0 0 3.58621 0 8C0 12.4138 3.58621 16 8 16C12.4138 16 16 12.4138 16 8C16 3.58621 12.3586 0 8 0ZM8 1.26897C10.2069 1.26897 12.1379 2.31724 13.3517 3.97241H12.0828C11.9172 3.97241 11.8069 3.91724 11.6966 3.8069L11.2 3.25517C11.1448 3.2 11.0345 3.14483 10.9241 3.14483C10.8138 3.14483 10.7035 3.2 10.6483 3.25517L10.0966 3.86207C10.0414 3.91724 9.93104 3.97241 9.82069 3.97241H9.37931H2.64828C3.86207 2.31724 5.7931 1.26897 8 1.26897ZM1.65517 5.7931H8.11034C8.33103 5.7931 8.49655 5.68276 8.66207 5.57241L9.10345 5.13103C9.15862 5.07586 9.26897 5.02069 9.37931 5.02069C9.48966 5.02069 9.6 5.07586 9.65517 5.13103L10.1517 5.68276C10.2621 5.7931 10.3724 5.84828 10.5379 5.84828H11.6966H14.3448C14.5103 6.4 14.6759 6.95172 14.6759 7.50345H9.71035C9.54483 7.50345 9.43448 7.44828 9.32413 7.33793L8.82759 6.78621C8.77241 6.73103 8.66207 6.67586 8.55172 6.67586C8.44138 6.67586 8.33103 6.73103 8.27586 6.78621L7.72414 7.3931C7.66897 7.44828 7.55862 7.50345 7.44828 7.50345H1.32413C1.32413 6.84138 1.43448 6.28966 1.65517 5.7931ZM8 14.731C6.06897 14.731 4.30345 13.9034 3.08966 12.5793C3.31035 12.5793 3.47587 12.469 3.64138 12.3586L4.08276 11.9172C4.13793 11.8621 4.24827 11.8069 4.35862 11.8069C4.46896 11.8069 4.57931 11.8621 4.63448 11.9172L5.13104 12.469C5.24138 12.5793 5.35172 12.6345 5.51724 12.6345H7.28276H12.9655C11.6414 13.9034 9.93103 14.731 8 14.731ZM14.0138 10.9241H7.22759C7.06207 10.9241 6.95172 10.869 6.84138 10.7586L6.34483 10.2069C6.28966 10.1517 6.17931 10.0966 6.06897 10.0966C5.95862 10.0966 5.84828 10.1517 5.7931 10.2069L5.24138 10.8138C5.18621 10.869 5.07586 10.9241 4.96552 10.9241H1.93103C1.65517 10.4276 1.48966 9.82069 1.37931 9.26896H5.73793C5.95862 9.26896 6.12413 9.15862 6.28965 9.04828L6.67587 8.6069C6.73104 8.55172 6.84138 8.49655 6.95173 8.49655C7.06207 8.49655 7.17242 8.55172 7.22759 8.6069L7.72414 9.15862C7.83448 9.26896 7.94483 9.32414 8.11034 9.32414H14.6207C14.4552 9.82069 14.2897 10.3724 14.0138 10.9241Z" fill="white"/>
</svg>
